<?xml version="1.0" encoding="UTF-8" standalone="no"?>
<svg
   xmlns:dc="http://purl.org/dc/elements/1.1/"
   xmlns:cc="http://creativecommons.org/ns#"
   xmlns:rdf="http://www.w3.org/1999/02/22-rdf-syntax-ns#"
   xmlns:svg="http://www.w3.org/2000/svg"
   xmlns="http://www.w3.org/2000/svg"
   xmlns:sodipodi="http://sodipodi.sourceforge.net/DTD/sodipodi-0.dtd"
   xmlns:inkscape="http://www.inkscape.org/namespaces/inkscape"
   width="174"
   height="32"
   viewBox="0 0 174 32"
   fill="none"
   version="1.1"
   id="svg3816"
   sodipodi:docname="logo-white.svg"
   inkscape:version="0.92.0 r15299">
  <metadata
     id="metadata3820">
    <rdf:RDF>
      <cc:Work
         rdf:about="">
        <dc:format>image/svg+xml</dc:format>
        <dc:type
           rdf:resource="http://purl.org/dc/dcmitype/StillImage" />
      </cc:Work>
    </rdf:RDF>
  </metadata>
  <sodipodi:namedview
     pagecolor="#ffffff"
     bordercolor="#666666"
     borderopacity="1"
     objecttolerance="10"
     gridtolerance="10"
     guidetolerance="10"
     inkscape:pageopacity="0"
     inkscape:pageshadow="2"
     inkscape:window-width="1366"
     inkscape:window-height="697"
     id="namedview3818"
     showgrid="false"
     inkscape:zoom="4.6652792"
     inkscape:cx="111.77525"
     inkscape:cy="-5.3663901"
     inkscape:window-x="-8"
     inkscape:window-y="-8"
     inkscape:window-maximized="1"
     inkscape:current-layer="g3809" />
  <g
     clip-path="url(#clip0)"
     id="g3809">
    <path
       d="M163.107 25.16C162.507 25.16 162.014 24.9867 161.627 24.64C161.254 24.28 161.067 23.84 161.067 23.32C161.067 22.7867 161.254 22.34 161.627 21.98C162.014 21.62 162.507 21.44 163.107 21.44C163.694 21.44 164.174 21.62 164.547 21.98C164.934 22.34 165.127 22.7867 165.127 23.32C165.127 23.84 164.934 24.28 164.547 24.64C164.174 24.9867 163.694 25.16 163.107 25.16Z"
       fill="#FF6800"
       id="path3803" />
    <text
       xml:space="preserve"
       style="font-style:normal;font-weight:normal;font-size:13.3333683px;line-height:25.00006866px;font-family:sans-serif;letter-spacing:0px;word-spacing:0px;fill:#ffffff;fill-opacity:1;stroke:none;stroke-width:1.00000262"
       x="72.48938"
       y="25.691233"
       id="text3785"
       transform="scale(1.0000027,0.99999731)"><tspan
         sodipodi:role="line"
         id="tspan3783"
         x="72.48938"
         y="25.691233"
         style="font-style:normal;font-variant:normal;font-weight:bold;font-stretch:normal;font-size:21.33339119px;font-family:Arial;-inkscape-font-specification:'Arial Bold';letter-spacing:10px;word-spacing:0px;fill:#ffffff;stroke-width:1.00000262">MAB</tspan></text>
    <path
       style="fill:#ffffff;stroke-width:1.01998472;paint-order:markers fill stroke"
       d="M 18.272275,0.01411809 39.016416,32.11568 h 5.466797 c 0.488024,0.09671 0.983392,0.145781 1.480468,0.146484 4.336856,5.63e-4 7.852984,-3.599899 7.853516,-8.041015 -0.0021,-4.387581 -3.438665,-7.962376 -7.722656,-8.035156 3.721154,-0.949355 6.328493,-4.315263 6.332031,-8.173828 -0.0017,-3.6653395 -2.353494,-6.8641666 -5.748047,-7.99804691 z"
       id="rect3950"
       inkscape:connector-curvature="0" />
    <path
       style="fill:#cccccc;stroke-width:1.57615829;paint-order:markers fill stroke"
       d="M 4.9884821,0.30748789 25.294802,32.145835 35.628293,32.179131 14.864872,0.19771189 Z"
       id="rect3997"
       inkscape:connector-curvature="0"
       sodipodi:nodetypes="ccccc" />
    <circle
       style="fill:#f1caff;paint-order:markers fill stroke"
       id="path4003"
       cx="8.2328835"
       cy="23.911291"
       r="8.0340195" />
  </g>
  <defs
     id="defs3814">
    <clipPath
       id="clip0">
      <rect
         width="174"
         height="32"
         fill="white"
         id="rect3811" />
    </clipPath>
  </defs>
</svg>
